<svg width="64" height="64" viewBox="0 0 64 64" xmlns="http://www.w3.org/2000/svg">
  <!-- Серый круглый фон -->
  <circle cx="32" cy="32" r="32" fill="#E0E0E0"/>
  
  <!-- Ваш логотип (полумесяц) в центре -->
  <g transform="translate(32, 32)">
    <!-- Зеленый полумесяц -->
    <path d="M -8 0 A 6 6 0 1 1 -8 0.01 A 4 4 0 1 0 -8 0 Z" fill="#4CAF50"/>
    
    <!-- Маленькая клавиатура справа -->
    <g transform="translate(2, -6)">
      <rect x="0" y="0" width="10" height="8" rx="1.5" ry="1.5" fill="#4CAF50"/>
      
      <!-- Кнопки -->
      <rect x="1" y="1" width="1" height="1" rx="0.2" fill="#E0E0E0"/>
      <rect x="2.5" y="1" width="1" height="1" rx="0.2" fill="#E0E0E0"/>
      <rect x="4" y="1" width="1" height="1" rx="0.2" fill="#E0E0E0"/>
      <rect x="5.5" y="1" width="1" height="1" rx="0.2" fill="#E0E0E0"/>
      <rect x="7" y="1" width="2" height="1" rx="0.2" fill="#E0E0E0"/>
      
      <rect x="1" y="2.5" width="1" height="1" rx="0.2" fill="#E0E0E0"/>
      <rect x="2.5" y="2.5" width="1" height="1" rx="0.2" fill="#E0E0E0"/>
      <rect x="4" y="2.5" width="1" height="1" rx="0.2" fill="#E0E0E0"/>
      <rect x="5.5" y="2.5" width="3.5" height="1" rx="0.2" fill="#E0E0E0"/>
      
      <rect x="1" y="4" width="1" height="1" rx="0.2" fill="#E0E0E0"/>
      <rect x="2.5" y="4" width="1" height="1" rx="0.2" fill="#E0E0E0"/>
      <rect x="4" y="4" width="5" height="1" rx="0.2" fill="#E0E0E0"/>
      
      <rect x="1" y="5.5" width="8" height="1.5" rx="0.2" fill="#E0E0E0"/>
    </g>
  </g>
  
  <!-- Текст "ABC" внизу -->
  <text x="32" y="52" text-anchor="middle" font-family="Arial, sans-serif" font-size="8" font-weight="bold" fill="#666666">ABC</text>
</svg>
